<svg width="422" height="80" fill="none" xmlns="http://www.w3.org/2000/svg"><path d="M141.756 12.339c2.064 3.944 3.538 8.09 4.62 12.339 1.081 4.247 1.573 8.596 1.573 12.945 0 4.35-.492 8.496-1.573 12.541-1.082 3.945-2.556 7.687-4.62 11.126a38.977 38.977 0 01-8.455 10.012c-3.342 2.832-7.078 4.956-11.108 6.473C118.064 79.292 113.64 80 109.02 80h-.393c-4.719 0-9.142-.708-13.173-2.225-4.03-1.517-7.766-3.64-11.108-6.473A38.988 38.988 0 0175.89 61.29c-2.064-3.44-3.538-7.181-4.62-11.126-1.081-3.944-1.573-8.192-1.573-12.54 0-4.35.492-8.699 1.573-12.946 1.082-4.248 2.556-8.395 4.62-12.34 2.95-5.663 6.488-9.304 10.716-11.023A13.753 13.753 0 0192.112.202c3.047 0 5.8.81 8.454 2.326 2.556 1.517 4.424 3.54 5.505 5.967 1.671 3.743 1.475 8.294-.393 13.654l-1.082 2.933a78.532 78.532 0 00-2.359 7.282c-.786 2.529-.786 4.754-.197 6.878.492 1.82 1.377 3.135 2.655 3.944 1.278.708 2.654 1.112 3.932 1.112s2.654-.404 4.03-1.112c1.377-.708 2.261-2.023 2.753-3.944.59-2.124.59-4.35-.197-6.878a313.169 313.169 0 00-2.359-7.282l-1.081-2.933c-1.868-5.36-1.966-9.911-.394-13.654 1.082-2.427 2.95-4.45 5.505-5.967a16.387 16.387 0 018.455-2.326c2.064 0 3.834.405 5.505 1.113 4.325 1.618 7.962 5.36 10.912 11.024z" fill="#E14B32"/><path d="M213.812 41.67c-1.081 2.224-2.555 4.247-4.423 6.27a29.781 29.781 0 01-6.488 5.057c4.128 2.832 6.684 5.158 7.569 6.877.688 1.113 1.18 2.225 1.475 3.54.295 1.315.295 2.63.196 3.944-.196 1.72-.786 3.338-1.573 4.855a12.318 12.318 0 01-3.244 3.944c-1.376 1.113-2.851 1.922-4.62 2.529-1.671.607-3.539.91-5.505.91-2.261 0-4.227-.404-6.095-1.214-1.278-.505-2.359-1.112-3.539-1.82-1.081-.708-2.163-1.517-3.146-2.225-3.145 3.742-7.274 5.563-12.386 5.563a17.56 17.56 0 01-4.62-.607c-1.573-.405-3.048-1.012-4.326-1.82-1.376-.81-2.556-1.821-3.637-3.035-1.081-1.214-1.868-2.73-2.359-4.45-.394-1.315-.59-2.73-.689-4.046-.098-1.314-.098-2.63-.098-3.843v-8.192c-.098-4.855-.196-9.81-.491-14.968-.197-5.057-.59-10.215-1.082-15.474v-.405c-.098-1.113-.098-2.326-.196-3.54 0-1.214 0-2.427.196-3.64.197-1.215.59-2.428 1.082-3.642a13.685 13.685 0 012.556-3.64 22.259 22.259 0 014.423-3.54c1.671-1.012 3.244-1.72 4.916-2.327 1.671-.607 3.244-1.112 4.718-1.416 1.475-.404 2.851-.607 4.031-.809.884-.101 1.867-.202 2.752-.303.885-.101 1.868-.101 2.753-.101 5.406 0 10.42 1.112 15.237 3.236 4.817 2.225 8.847 5.26 12.091 9.203 3.343 4.046 5.505 8.496 6.39 13.35 1.278 5.766.59 10.924-1.868 15.778zm-22.216-12.137c.098-.203.098-.506.098-1.012-.197-.91-.787-1.517-1.77-1.618-.983-.202-1.867-.101-2.654.304-.59.303-.885.707-1.081 1.314-.197.607-.099 1.214.196 1.619.197.606.689 1.011 1.278 1.213.59.202 1.278.304 1.868.202.492-.1.885-.404 1.278-.707.295-.405.59-.81.787-1.315z" fill="#F8971D"/><path d="M330.892 79.495c-1.278.1-2.458.202-3.736.303-1.278.101-2.555.101-3.833.101-1.77 0-3.933-.101-6.39-.303-2.458-.203-4.915-.708-7.373-1.416-3.146-.91-5.702-2.225-7.668-3.945-1.966-1.719-3.441-3.54-4.62-5.663-1.082-2.124-1.966-4.248-2.359-6.473a38.964 38.964 0 01-.885-6.574c-.393-5.36-.492-10.62-.393-15.778.098-5.158.294-9.911.491-14.462.098-.405.098-.81.098-1.518.197-2.528.394-5.158.787-7.888.393-2.731 1.179-5.36 2.654-7.89 1.376-2.528 3.342-4.45 5.8-5.865C305.923.708 308.577 0 311.329 0c4.326 0 8.061 1.517 11.207 4.551 1.278 1.315 2.261 2.63 2.949 4.147.688 1.517 1.278 2.933 1.573 4.45a34.43 34.43 0 01.59 4.45c.098 1.416.098 2.73.098 3.843v6.675c.099 2.731.099 5.462.099 8.294 0 2.832.098 5.664.196 8.394v2.326c.492 0 .885 0 1.376-.1.492 0 .885-.102 1.278-.102.295 0 .59 0 .787.101.196 0 .491.101.688.101 1.278.101 2.851.304 4.62.607 1.77.304 3.539 1.113 5.407 2.326 2.261 1.517 4.031 3.44 5.21 5.765a14.863 14.863 0 011.868 7.282c0 2.427-.492 4.653-1.573 6.473-1.081 1.922-2.458 3.54-4.227 4.855a23.972 23.972 0 01-5.898 3.236c-2.065.91-4.326 1.517-6.685 1.82z" fill="#FFC709"/><path d="M399.903 31.353c-.59 0-.885.202-.885.405-.098.1-.098.303-.098.506 0 .202.197.505.492.707.393.304.884.607 1.671 1.012.786.404 1.966.809 3.539 1.315.491.1.786.202 1.081.303 3.736 1.214 7.078 3.338 9.929 6.27 2.359 2.529 4.03 5.36 4.915 8.496.885 3.136.983 6.17.197 9.204-.787 3.236-2.458 6.27-4.916 9.001-2.457 2.73-5.406 4.956-8.945 6.675a37.524 37.524 0 01-9.438 3.338 57.661 57.661 0 01-10.321 1.213c-1.77 0-3.539 0-5.211-.202-4.718-.404-9.044-1.517-12.779-3.236-3.834-1.72-6.882-4.046-9.241-6.878-1.769-2.124-2.949-4.45-3.735-6.978-.787-2.529-.885-5.057-.492-7.484.197-1.113.59-2.327 1.081-3.54.492-1.214 1.18-2.225 2.065-3.237.885-.91 1.868-1.72 3.047-2.326a8.261 8.261 0 013.834-.91c1.278 0 2.556.202 3.834.607 1.18.404 2.359.91 3.441 1.517.393.202.786.404 1.081.607.393.202.688.303 1.081.505.295.101.689.304 1.082.405.393.101.884.101 1.179.101.492 0 .689 0 .787-.101.098-.101.196-.202.196-.304v-.606c0-.203-.196-.506-.491-.81-.295-.303-.885-.606-1.671-1.01-.787-.405-1.966-.81-3.539-1.316l-1.082-.303a18.722 18.722 0 01-5.21-2.427c-1.671-1.113-3.244-2.327-4.62-3.742-2.359-2.529-4.031-5.36-4.817-8.496-.885-3.135-.885-6.17-.098-9.204.786-3.236 2.457-6.27 4.915-9.102 2.458-2.832 5.407-5.057 8.946-6.675.295-.202.884-.506 1.573-.81 5.603-2.427 11.698-3.64 18.382-3.741h1.278c1.278 0 2.655.1 4.129.202a26.43 26.43 0 013.932.607c1.278.303 2.655.607 3.834.91 5.899 1.72 10.519 4.652 13.861 8.698a18.233 18.233 0 013.638 6.978c.688 2.529.884 5.057.393 7.586-.197 1.213-.59 2.427-1.082 3.54-.491 1.112-1.179 2.224-2.064 3.135-.885.91-1.868 1.72-2.949 2.326a8.261 8.261 0 01-3.834.91h-.098a12.63 12.63 0 01-3.834-.607 20.93 20.93 0 01-3.441-1.517c-.393-.202-.786-.404-1.081-.606-.295-.203-.688-.304-1.082-.506-.491-.304-1.376-.405-2.359-.405z" fill="#F15F6B"/><path d="M286.166 26.195c-.885-4.855-3.047-9.305-6.39-13.452-3.244-3.944-7.274-6.978-12.091-9.203-4.817-2.225-9.929-3.338-15.336-3.338-.885 0-1.868 0-2.851.101-.983.101-1.966.203-2.851.304-1.179.202-2.457.505-4.03.809-1.475.404-3.146.91-4.817 1.517a24.735 24.735 0 00-4.915 2.427c-1.671 1.012-3.146 2.124-4.424 3.54-1.18 1.214-2.064 2.427-2.654 3.742a13.757 13.757 0 00-1.18 3.742c-.196 1.214-.295 2.428-.196 3.641 0 1.214.098 2.428.196 3.54v.405c.393 5.158.688 10.215.983 15.17.295 4.956.492 9.81.492 14.564v7.99c0 1.214 0 2.528.098 3.843 0 1.315.295 2.731.688 4.147.59 1.618 1.377 3.135 2.458 4.45 1.081 1.315 2.457 2.427 4.03 3.338 2.753 1.618 5.899 2.326 9.241 2.326 3.539 0 6.685-.81 9.339-2.529 2.654-1.719 4.522-4.045 5.505-6.877.393-.81.688-1.72.786-2.73.099-.911.197-1.922.295-3.136 0-.708 0-1.416-.098-2.124 0-.708-.098-1.416-.098-2.124-.099-.404-.099-.708-.099-1.011v-1.214c2.065-.101 4.129-.506 6.194-1.112 2.064-.607 4.03-1.315 5.898-2.225 3.146-1.517 5.8-3.338 8.257-5.664 2.36-2.225 4.228-4.652 5.506-7.282 2.457-4.653 3.145-9.912 2.064-15.575zm-22.708 8.697c-1.77.102-3.343-1.213-3.343-2.831v-.102s-.196-.202-.688-.404c-.59.101-1.18.101-1.769-.101-.197-.101-.295-.101-.492-.203h-1.376c-3.343.203-4.522.405-4.522.405.098.202 0 .202 0 .405.098 1.618-1.278 2.933-3.146 3.034-1.769.1-3.342-1.214-3.342-2.832-.099-1.618 1.278-2.933 3.145-3.034-1.769.1-3.342-1.214-3.342-2.832-.098-1.618 1.278-2.933 3.146-3.034 1.769-.101 3.342 1.213 3.342 2.832v.1s1.278.506 5.8.608c2.949 0 3.048-.304 3.048-.304-.099-.202 0-.202 0-.404-.099-1.619 1.278-2.933 3.145-3.035 1.77-.1 3.343 1.214 3.343 2.832.098 1.619-1.278 2.933-3.146 3.034 1.769-.1 3.342 1.214 3.342 2.832 0 1.619-1.376 3.034-3.145 3.034z" fill="#41C0C9"/><path d="M61.834 26.195c-.885-4.855-3.048-9.305-6.39-13.452C52.1 8.8 48.07 5.765 43.254 3.54 38.437 1.315 33.325.202 27.92.202c-.885 0-1.868 0-2.851.101-.983.101-1.966.203-2.851.304-1.18.202-2.556.505-4.03.809-1.475.404-3.146.91-4.818 1.517A24.732 24.732 0 008.454 5.36C6.783 6.372 5.308 7.484 4.03 8.9c-1.18 1.214-2.064 2.427-2.654 3.641a13.747 13.747 0 00-1.18 3.742C0 17.497 0 18.71 0 19.924s.098 2.427.197 3.54v.405c.393 5.157.688 10.214.983 15.17.295 4.956.491 9.81.491 14.564v7.99c0 1.214 0 2.528.098 3.843 0 1.315.295 2.73.689 4.147.59 1.618 1.376 3.135 2.457 4.45 1.082 1.315 2.458 2.427 4.03 3.338 2.753 1.618 5.899 2.326 9.241 2.326 3.54 0 6.685-.81 9.34-2.529 2.654-1.72 4.521-4.045 5.504-6.877.394-.81.688-1.72.787-2.73.098-.911.196-1.923.295-3.136 0-.708 0-1.416-.099-2.124 0-.708-.098-1.416-.098-2.124-.098-.404-.098-.708-.098-1.011v-1.214c2.064-.101 4.129-.506 6.193-1.112 2.064-.607 4.03-1.315 5.898-2.226 3.146-1.517 5.8-3.337 8.258-5.663 2.36-2.225 4.227-4.653 5.505-7.282 2.556-4.551 3.244-9.81 2.163-15.474zm-30.278-3.44c.491-1.314 1.868-2.123 3.146-1.82 1.278.405 1.966 1.72 1.572 3.136-.491 1.314-1.867 2.124-3.145 1.82-1.278-.404-2.065-1.72-1.573-3.135zm-7.865-1.314c.492-1.416 1.966-2.225 3.343-1.82 1.376.404 2.064 1.82 1.573 3.236-.492 1.416-1.966 2.225-3.343 1.82-1.376-.404-2.064-1.82-1.573-3.236zm-5.603 3.338c.393-1.113 1.573-1.82 2.753-1.517 1.18.303 1.67 1.517 1.376 2.63-.393 1.112-1.573 1.82-2.753 1.516-1.18-.303-1.77-1.416-1.376-2.63zm20.546 12.743c-1.18 3.439-6.488 5.057-11.895 3.54-5.407-1.517-8.848-5.563-7.668-9.102 1.18-3.54 6.488-5.057 11.895-3.54 5.407 1.618 8.847 5.663 7.668 9.102zm3.637-7.99c-.492 1.416-1.966 2.225-3.342 1.82-1.377-.404-2.065-1.82-1.672-3.236.492-1.416 1.967-2.225 3.343-1.82 1.376.303 2.064 1.82 1.671 3.236z" fill="#B62979"/></svg>