<svg width="212" height="40" fill="none" xmlns="http://www.w3.org/2000/svg"><path d="M70.917 6.17c1.033 1.972 1.77 4.045 2.311 6.169.541 2.124.787 4.298.787 6.473 0 2.174-.246 4.247-.787 6.27-.54 1.972-1.278 3.843-2.311 5.563a19.496 19.496 0 01-4.23 5.006c-1.672 1.416-3.54 2.478-5.557 3.236-2.065.759-4.279 1.113-6.59 1.113h-.197c-2.36 0-4.573-.354-6.59-1.112-2.016-.759-3.885-1.821-5.557-3.237a19.496 19.496 0 01-4.23-5.006c-1.032-1.72-1.77-3.59-2.31-5.563-.542-1.972-.788-4.096-.788-6.27 0-2.175.246-4.35.787-6.473.541-2.124 1.279-4.197 2.312-6.17 1.475-2.831 3.245-4.652 5.36-5.512a6.884 6.884 0 012.754-.556c1.525 0 2.902.405 4.23 1.163 1.278.759 2.213 1.77 2.754 2.984.836 1.87.737 4.147-.197 6.827l-.541 1.466a39.152 39.152 0 00-1.18 3.641c-.394 1.264-.394 2.377-.099 3.439.246.91.689 1.567 1.328 1.972.64.354 1.328.556 1.967.556.64 0 1.328-.202 2.017-.556.688-.354 1.13-1.011 1.377-1.972.295-1.062.295-2.175-.099-3.439a156.11 156.11 0 00-1.18-3.64l-.54-1.467c-.935-2.68-.984-4.956-.198-6.827.541-1.214 1.476-2.225 2.754-2.984a8.2 8.2 0 014.23-1.163 6.9 6.9 0 012.754.556c2.164.81 3.983 2.68 5.459 5.512z" fill="#E14B32"/><path d="M106.965 20.834c-.541 1.113-1.278 2.124-2.213 3.136a14.89 14.89 0 01-3.246 2.528c2.066 1.416 3.344 2.58 3.787 3.439.344.556.59 1.112.738 1.77.147.657.147 1.315.098 1.972-.098.86-.393 1.669-.787 2.427a6.155 6.155 0 01-1.623 1.972 7.37 7.37 0 01-2.311 1.265c-.836.303-1.77.455-2.754.455-1.131 0-2.115-.203-3.05-.607-.639-.253-1.18-.556-1.77-.91-.54-.354-1.082-.759-1.573-1.113-1.574 1.871-3.64 2.781-6.197 2.781a8.795 8.795 0 01-2.311-.303 7.581 7.581 0 01-2.164-.91 7.533 7.533 0 01-1.82-1.517c-.541-.607-.934-1.366-1.18-2.225-.197-.658-.295-1.366-.345-2.023-.049-.657-.049-1.315-.049-1.922v-4.096c-.049-2.427-.098-4.905-.246-7.484-.098-2.528-.295-5.107-.54-7.737v-.202c-.05-.556-.05-1.163-.099-1.77 0-.607 0-1.214.098-1.82.099-.607.295-1.214.541-1.821a6.855 6.855 0 011.279-1.82 11.131 11.131 0 012.213-1.77A13.54 13.54 0 0183.9 1.365c.836-.303 1.623-.556 2.36-.708.738-.202 1.427-.303 2.017-.404.443-.05.934-.101 1.377-.152.443-.05.934-.05 1.377-.05 2.705 0 5.213.556 7.623 1.618 2.41 1.112 4.426 2.63 6.049 4.602 1.672 2.022 2.754 4.247 3.197 6.675.639 2.882.295 5.461-.935 7.888zm-11.114-6.068c.049-.101.049-.253.049-.506-.099-.455-.394-.758-.885-.809-.492-.1-.935-.05-1.328.152-.295.152-.443.354-.541.657-.099.304-.05.607.098.81.099.303.344.505.64.606.295.101.639.152.934.101.246-.05.442-.202.64-.353.147-.203.294-.405.393-.658z" fill="#F8971D"/><path d="M165.537 39.747c-.639.05-1.229.101-1.869.152-.639.05-1.278.05-1.918.05-.885 0-1.967-.05-3.196-.151-1.23-.102-2.459-.354-3.689-.708-1.573-.455-2.852-1.113-3.836-1.973-.983-.86-1.721-1.77-2.311-2.831-.541-1.062-.984-2.124-1.18-3.237a19.484 19.484 0 01-.443-3.287 85.319 85.319 0 01-.197-7.889c.049-2.579.148-4.955.246-7.23.049-.203.049-.405.049-.76.099-1.264.197-2.578.394-3.944.197-1.365.59-2.68 1.328-3.944.688-1.264 1.672-2.225 2.901-2.933A7.806 7.806 0 01155.751 0c2.163 0 4.032.759 5.606 2.276.639.657 1.131 1.314 1.475 2.073.345.758.64 1.466.787 2.225.148.758.246 1.466.295 2.225.05.708.05 1.365.05 1.922v3.337c.049 1.366.049 2.73.049 4.147 0 1.416.049 2.832.098 4.197v1.163c.246 0 .443 0 .689-.05.245 0 .442-.051.639-.051.147 0 .295 0 .393.05.099 0 .246.051.345.051.639.05 1.426.152 2.311.303.885.152 1.771.557 2.705 1.164 1.131.758 2.016 1.719 2.606 2.882a7.422 7.422 0 01.935 3.64c0 1.215-.246 2.327-.787 3.237a7.619 7.619 0 01-2.115 2.428 11.988 11.988 0 01-2.951 1.618 12.12 12.12 0 01-3.344.91z" fill="#FFC709"/><path d="M200.062 15.676c-.295 0-.443.101-.443.203-.049.05-.049.151-.049.252 0 .102.098.253.246.354.197.152.443.304.836.506.393.202.984.405 1.771.657.245.051.393.102.54.152 1.869.607 3.541 1.669 4.968 3.136 1.18 1.264 2.016 2.68 2.459 4.247.442 1.568.491 3.085.098 4.602-.394 1.618-1.23 3.135-2.459 4.5-1.23 1.366-2.705 2.479-4.475 3.338a18.786 18.786 0 01-4.722 1.669 28.858 28.858 0 01-5.163.607c-.886 0-1.771 0-2.607-.101-2.361-.203-4.524-.759-6.393-1.619-1.918-.86-3.443-2.022-4.623-3.438-.885-1.062-1.475-2.225-1.869-3.49a8.115 8.115 0 01-.246-3.742c.099-.556.295-1.163.541-1.77.246-.606.59-1.112 1.033-1.618.443-.455.934-.86 1.524-1.163a4.138 4.138 0 011.918-.455c.64 0 1.279.101 1.918.304.591.202 1.181.455 1.722.758.196.101.393.202.541.303.196.102.344.152.541.253.147.05.344.152.541.203.196.05.442.05.59.05.246 0 .344 0 .393-.05.049-.05.099-.102.099-.152v-.303c0-.102-.099-.253-.246-.405-.148-.152-.443-.303-.836-.506-.394-.202-.984-.404-1.771-.657l-.541-.152a9.366 9.366 0 01-2.606-1.213c-.836-.557-1.623-1.164-2.312-1.872-1.18-1.264-2.016-2.68-2.409-4.247a8.607 8.607 0 01-.05-4.602c.394-1.618 1.23-3.135 2.459-4.551a12.982 12.982 0 014.476-3.338c.147-.1.442-.253.787-.404 2.803-1.214 5.852-1.82 9.196-1.871h.639c.64 0 1.328.05 2.066.1.639.051 1.328.152 1.967.304s1.328.304 1.918.455c2.951.86 5.262 2.326 6.934 4.35a9.098 9.098 0 011.82 3.488c.344 1.265.443 2.529.197 3.793a7.379 7.379 0 01-.541 1.77 5.377 5.377 0 01-1.033 1.568c-.443.455-.934.86-1.475 1.163a4.138 4.138 0 01-1.918.455h-.05a6.332 6.332 0 01-1.918-.304c-.59-.202-1.18-.455-1.721-.758a5.34 5.34 0 01-.541-.303c-.147-.102-.344-.152-.541-.253-.246-.152-.688-.203-1.18-.203z" fill="#F15F6B"/><path d="M143.162 13.097c-.443-2.427-1.525-4.652-3.197-6.725-1.623-1.972-3.639-3.49-6.049-4.602-2.41-1.113-4.967-1.669-7.672-1.669-.442 0-.934 0-1.426.05-.492.051-.984.102-1.426.153-.59.1-1.23.252-2.017.404-.737.202-1.573.455-2.409.759-.836.303-1.673.708-2.459 1.213-.836.506-1.574 1.062-2.213 1.77-.591.607-1.033 1.214-1.328 1.871a6.86 6.86 0 00-.59 1.871 7.524 7.524 0 00-.099 1.82c0 .607.049 1.214.099 1.77v.203c.196 2.579.344 5.107.491 7.585.148 2.478.246 4.905.246 7.282v3.995c0 .607 0 1.264.049 1.922 0 .657.148 1.365.345 2.073.295.81.688 1.568 1.229 2.225.541.657 1.23 1.214 2.016 1.669 1.378.809 2.951 1.163 4.623 1.163 1.771 0 3.345-.405 4.672-1.264 1.328-.86 2.263-2.023 2.754-3.439.197-.405.345-.86.394-1.365.049-.456.098-.961.147-1.568 0-.354 0-.708-.049-1.062 0-.354-.049-.708-.049-1.062-.049-.202-.049-.354-.049-.506v-.606c1.033-.051 2.065-.253 3.098-.557 1.033-.303 2.017-.657 2.951-1.112a15.91 15.91 0 004.131-2.832c1.18-1.113 2.115-2.326 2.754-3.641 1.23-2.326 1.574-4.956 1.033-7.788zm-11.361 4.35c-.885.05-1.672-.607-1.672-1.417v-.05s-.098-.101-.344-.203c-.295.051-.59.051-.885-.05-.099-.05-.148-.05-.246-.101h-.689c-1.672.101-2.262.202-2.262.202.049.101 0 .101 0 .202.049.81-.639 1.467-1.574 1.517-.885.051-1.672-.606-1.672-1.416-.049-.809.64-1.466 1.574-1.517-.885.051-1.672-.606-1.672-1.416-.049-.809.639-1.466 1.574-1.517.885-.05 1.672.607 1.672 1.416v.051s.639.253 2.901.303c1.476 0 1.525-.151 1.525-.151-.049-.102 0-.102 0-.203-.049-.809.639-1.466 1.574-1.517.885-.05 1.672.607 1.672 1.416.049.81-.64 1.467-1.574 1.517.885-.05 1.672.607 1.672 1.416 0 .81-.688 1.517-1.574 1.517z" fill="#41C0C9"/><path d="M30.934 13.097c-.443-2.427-1.525-4.652-3.197-6.725C26.065 4.4 24.05 2.882 21.64 1.77 19.229.657 16.672.101 13.967.101c-.443 0-.934 0-1.426.05-.492.051-.984.102-1.426.153-.59.1-1.28.252-2.017.404-.738.202-1.574.455-2.41.759-.836.303-1.672.708-2.459 1.213-.836.506-1.573 1.062-2.213 1.77C1.426 5.057.984 5.664.69 6.27A6.87 6.87 0 00.1 8.142C0 8.748 0 9.355 0 9.962s.05 1.214.098 1.77v.202c.197 2.58.345 5.108.492 7.586.148 2.477.246 4.905.246 7.282v3.994c0 .607 0 1.265.05 1.922 0 .657.147 1.365.343 2.073.296.81.689 1.568 1.23 2.225.54.658 1.23 1.214 2.016 1.67 1.377.808 2.951 1.162 4.623 1.162 1.77 0 3.344-.404 4.672-1.264 1.328-.86 2.262-2.023 2.754-3.439.197-.404.345-.86.394-1.365.049-.455.098-.96.147-1.568 0-.354 0-.708-.049-1.062 0-.353-.05-.707-.05-1.061-.048-.203-.048-.354-.048-.506v-.607c1.033-.05 2.065-.253 3.098-.556 1.033-.304 2.016-.658 2.95-1.113a15.925 15.925 0 004.132-2.832c1.18-1.112 2.115-2.326 2.754-3.64 1.279-2.276 1.623-4.906 1.082-7.738zm-15.147-1.719c.245-.657.934-1.062 1.573-.91.64.202.984.86.787 1.568-.246.657-.934 1.061-1.573.91-.64-.203-1.033-.86-.787-1.568zm-3.935-.657c.246-.708.984-1.113 1.672-.91.689.202 1.033.91.787 1.618-.246.708-.983 1.112-1.672.91-.688-.202-1.033-.91-.787-1.618zM9.05 12.389c.197-.556.787-.91 1.377-.758.59.152.836.758.689 1.315-.197.556-.787.91-1.377.758-.59-.152-.886-.708-.689-1.315zm10.279 6.372c-.59 1.72-3.246 2.529-5.951 1.77-2.705-.758-4.426-2.781-3.836-4.551.59-1.77 3.246-2.529 5.95-1.77 2.705.809 4.427 2.832 3.837 4.551zm1.82-3.995c-.247.708-.984 1.113-1.673.91-.689-.202-1.033-.91-.836-1.618.246-.708.984-1.112 1.672-.91.689.152 1.033.91.836 1.618z" fill="#B62979"/></svg>