<svg width="16" height="16" viewBox="0 0 16 16" fill="none" xmlns="http://www.w3.org/2000/svg">
<path d="M0.611501 3.5658C-0.203834 2.75013 -0.203834 1.42834 0.611502 0.612665C1.42774 -0.203907 2.75179 -0.203906 3.56803 0.612666L5.87727 2.92287C7.04887 4.09494 8.9493 4.09514 10.1211 2.9233L12.4323 0.612125C13.2485 -0.204042 14.5721 -0.204041 15.3882 0.612126C16.204 1.42787 16.204 2.75013 15.3882 3.56587L13.0729 5.88118C11.902 7.05207 11.9018 8.94993 13.0725 10.1211L15.3849 12.4344C16.2002 13.2501 16.2002 14.5719 15.3849 15.3876C14.5687 16.2041 13.2446 16.2041 12.4284 15.3876L10.1201 13.0783C8.9485 11.9062 7.04806 11.906 5.87623 13.0779L3.56891 15.3852C2.75274 16.2014 1.42916 16.2014 0.612992 15.3852C-0.202749 14.5695 -0.202749 13.2472 0.612992 12.4315L2.92444 10.12C4.09533 8.94912 4.09552 7.05126 2.92488 5.88014L0.611501 3.5658Z" fill="#333333"/>
</svg>
