<svg width="16" height="14" viewBox="0 0 16 14" fill="none" xmlns="http://www.w3.org/2000/svg">
<path d="M8 14C10.6667 13.0086 16 9.76475 16 4.72053C16 4.65418 15.9987 4.5891 15.9962 4.52526C15.9987 4.46382 16 4.40206 16 4.33999C16 1.94308 14.0856 0 11.7241 0C10.1269 0 8.73413 0.888959 8 2.20603C7.26587 0.888959 5.87315 0 4.27586 0C1.91437 0 0 1.94308 0 4.33999C0 4.40206 0.00128378 4.46383 0.00382587 4.52526C0.00128616 4.58913 0 4.65424 0 4.72061C0 9.76483 5.33333 13.0086 8 14Z" fill="#333333"/>
</svg>
