<svg width="64" height="64" viewBox="0 0 64 64" fill="none" xmlns="http://www.w3.org/2000/svg">
<path d="M30.94 0.662498C31.5885 0.257161 32.4115 0.257161 33.06 0.662499L63.06 19.4125C63.6448 19.778 64 20.4189 64 21.1085V26.4479C64 28.0348 62.2405 28.9896 60.91 28.1248L33.0689 10.0281C32.4169 9.60432 31.5784 9.59686 30.9189 10.009L3.05999 27.4208C1.7279 28.2534 0 27.2957 0 25.7248V21.1085C0 20.4189 0.355239 19.778 0.940002 19.4125L30.94 0.662498ZM30.9128 11.6222C31.575 11.2026 32.4212 11.2085 33.0774 11.6373L58.0274 27.9412C58.5926 28.3106 58.9333 28.9402 58.9333 29.6154V62C58.9333 63.1046 58.0379 64 56.9333 64H43.8667C42.7621 64 41.8667 63.1046 41.8667 62V51.1999C41.8667 48.5332 41.0667 45.8667 39.4667 44C37.8667 42.1333 35.2 41.0666 32 41.0666C28.8 41.0666 26.4 42.1333 24.5333 44C22.9333 45.8667 22.1333 48.2665 22.1333 51.1999V62C22.1333 63.1046 21.2379 64 20.1333 64H7.06667C5.9621 64 5.06667 63.1046 5.06667 62V29.1004C5.06667 28.4152 5.41741 27.7777 5.99616 27.411L30.9128 11.6222ZM30.1333 17.5999C29.0667 17.5999 28.2667 19.1999 28.2667 21.0666C28.2667 22.9332 29.0667 24.5332 30.1333 24.5332C31.1458 24.5332 31.918 23.0917 32.2219 21.3489C32.2545 21.1622 32.2545 20.9709 32.2219 20.7842C31.918 19.0414 31.1458 17.5999 30.1333 17.5999ZM34.7494 21.4089C34.6908 21.5343 34.6265 21.6575 34.5547 21.7759C33.6203 23.3158 33.896 24.8196 34.6667 25.3333C35.7333 25.8667 37.0667 25.0666 38.1333 23.4666C39.1027 22.0125 38.9709 20.5583 38.3383 19.9049C38.2146 19.7772 38.0485 19.7005 37.8753 19.6603C36.4667 19.334 35.2963 20.2381 34.7494 21.4089ZM24 22.1333C22.9678 22.3914 22.6847 23.8979 22.9092 25.4449C22.9242 25.5482 22.9493 25.6499 22.9848 25.7482C23.5333 27.2652 24.5666 28.2583 25.6 28C26.5829 27.7543 26.8865 26.3762 26.7195 24.9093C26.6911 24.66 26.6008 24.4224 26.4708 24.2078C25.7344 22.993 24.9797 21.8884 24 22.1333ZM37.0667 28.2666C36 29.8666 36 31.4667 37.0667 32C38.1333 32.5333 39.4667 31.7333 40.5333 30.1333C41.6 28.5333 41.6 26.9332 40.5333 26.3999C39.2 25.8666 37.6 27.1999 37.0667 28.2666ZM24.2667 31.7332C24 32.7999 24.5333 33.8666 26.1333 34.3999C26.8101 34.6255 28.6319 34.6603 29.6614 34.6657C29.9719 34.6673 30.2787 34.7387 30.5339 34.9156C31.0402 35.2664 31.7067 35.7933 32.5333 36C33.3333 36.2667 34.6667 35.4666 34.9333 34.3999C35.4352 32.6435 33.34 28.0541 31.7579 27.0737C31.5751 26.9604 31.3577 26.9297 31.1433 26.9455C28.7441 27.1216 25.2865 29.1836 24.2667 31.7332Z" fill="#333333"/>
</svg>
