<svg width="16" height="8" viewBox="0 0 16 8" fill="none" xmlns="http://www.w3.org/2000/svg">
<path d="M3.55556 2C3.55556 2.16646 3.53748 2.32817 3.50341 2.48278H12.4966C12.4625 2.32817 12.4444 2.16646 12.4444 2C12.4444 0.89543 13.2404 0 14.2222 0C15.2041 0 16 0.89543 16 2C16 3.10457 15.2041 4 14.2222 4C15.2041 4 16 4.89543 16 6C16 7.10457 15.2041 8 14.2222 8C13.2609 8 12.4778 7.14161 12.4455 6.06898H3.55452C3.5222 7.14161 2.73909 8 1.77778 8C0.795938 8 0 7.10457 0 6C0 4.89543 0.795938 4 1.77778 4C0.795938 4 0 3.10457 0 2C0 0.89543 0.795938 0 1.77778 0C2.75962 0 3.55556 0.89543 3.55556 2Z" fill="#007CC2"/>
</svg>
