<svg width="422" height="80" viewBox="0 0 422 80" fill="none" xmlns="http://www.w3.org/2000/svg">
<path d="M141.756 12.3387C143.82 16.2831 145.294 20.4298 146.376 24.6776C147.457 28.9254 147.949 33.2743 147.949 37.6232C147.949 41.9722 147.457 46.1188 146.376 50.1644C145.294 54.1088 143.82 57.8509 141.756 61.2896C139.495 65.1328 136.644 68.4704 133.301 71.3022C129.959 74.1341 126.223 76.258 122.193 77.7751C118.064 79.2921 113.64 80.0001 109.02 80.0001H108.627C103.908 80.0001 99.4845 79.2921 95.454 77.7751C91.4236 76.258 87.688 74.1341 84.3456 71.3022C81.0033 68.4704 78.1524 65.1328 75.8914 61.2896C73.827 57.8509 72.3525 54.1088 71.2711 50.1644C70.1898 46.22 69.6982 41.9722 69.6982 37.6232C69.6982 33.2743 70.1898 28.9254 71.2711 24.6776C72.3525 20.4298 73.827 16.2831 75.8914 12.3387C78.8406 6.67499 82.3795 3.03402 86.6066 1.31467C88.2778 0.606701 90.0473 0.202148 92.1117 0.202148C95.1591 0.202148 97.9117 1.01125 100.566 2.52832C103.122 4.0454 104.99 6.06816 106.071 8.49547C107.742 12.2376 107.546 16.7888 105.678 22.1491L104.596 25.0821C103.712 27.4083 102.925 29.8356 102.237 32.3641C101.451 34.8925 101.451 37.1176 102.04 39.2415C102.532 41.0619 103.417 42.3767 104.695 43.1858C105.973 43.8938 107.349 44.2984 108.627 44.2984C109.905 44.2984 111.281 43.8938 112.657 43.1858C114.034 42.4779 114.918 41.1631 115.41 39.2415C116 37.1176 116 34.8925 115.213 32.3641C114.427 29.8356 113.64 27.4083 112.854 25.0821L111.773 22.1491C109.905 16.7888 109.807 12.2376 111.379 8.49547C112.461 6.06816 114.329 4.0454 116.884 2.52832C119.44 1.01125 122.291 0.202148 125.339 0.202148C127.403 0.202148 129.173 0.606701 130.844 1.31467C135.169 2.93288 138.806 6.67499 141.756 12.3387Z" fill="#E14B32"/>
<path d="M213.812 41.6693C212.731 43.8944 211.257 45.9171 209.389 47.9399C207.521 49.8615 205.358 51.5808 202.901 52.9968C207.029 55.8287 209.585 58.1548 210.47 59.8742C211.158 60.9867 211.65 62.0992 211.945 63.414C212.24 64.7288 212.24 66.0436 212.141 67.3584C211.945 69.0777 211.355 70.696 210.568 72.213C209.782 73.7301 208.701 75.0449 207.324 76.1574C205.948 77.2699 204.473 78.079 202.704 78.6859C201.033 79.2927 199.165 79.5961 197.199 79.5961C194.938 79.5961 192.972 79.1916 191.104 78.3824C189.826 77.8768 188.745 77.2699 187.565 76.562C186.484 75.854 185.402 75.0449 184.419 74.3369C181.274 78.079 177.145 79.8995 172.033 79.8995C170.46 79.8995 168.887 79.6972 167.413 79.2927C165.84 78.8881 164.365 78.2813 163.087 77.4722C161.711 76.6631 160.531 75.6517 159.45 74.4381C158.369 73.2244 157.582 71.7073 157.091 69.988C156.697 68.6732 156.501 67.2573 156.402 65.9425C156.304 64.6277 156.304 63.3129 156.304 62.0992V61.9981V53.907C156.206 49.0524 156.108 44.0966 155.813 38.9386C155.616 33.8817 155.223 28.7236 154.731 23.4645V23.0599C154.633 21.9474 154.633 20.7337 154.535 19.5201C154.535 18.3064 154.535 17.0928 154.731 15.8791C154.928 14.6654 155.321 13.4518 155.813 12.2381C156.402 11.0245 157.189 9.81082 158.369 8.59716C159.647 7.28237 161.121 6.06871 162.792 5.05733C164.463 4.04595 166.036 3.33798 167.708 2.73115C169.379 2.12432 170.952 1.61863 172.426 1.31522C173.901 0.910667 175.277 0.708391 176.457 0.506115C177.341 0.404977 178.324 0.303839 179.209 0.202701C180.094 0.101562 181.077 0.101562 181.962 0.101562C187.368 0.101562 192.382 1.21408 197.199 3.33798C202.016 5.56302 206.046 8.59716 209.29 12.5415C212.633 16.5871 214.795 21.0371 215.68 25.8918C216.958 31.6566 216.27 36.8147 213.812 41.6693ZM191.596 29.5327C191.694 29.3305 191.694 29.0271 191.694 28.5214C191.497 27.6111 190.907 27.0043 189.924 26.9032C188.941 26.7009 188.057 26.802 187.27 27.2066C186.68 27.51 186.385 27.9145 186.189 28.5214C185.992 29.1282 186.09 29.735 186.385 30.1396C186.582 30.7464 187.074 31.151 187.663 31.3532C188.253 31.5555 188.941 31.6566 189.531 31.5555C190.023 31.4544 190.416 31.151 190.809 30.8475C191.104 30.443 191.399 30.0384 191.596 29.5327Z" fill="#F8971D"/>
<path d="M330.892 79.4946C329.614 79.5957 328.434 79.6969 327.156 79.798C325.878 79.8991 324.601 79.8991 323.323 79.8991C321.553 79.8991 319.39 79.798 316.933 79.5957C314.475 79.3934 312.018 78.8877 309.56 78.1798C306.414 77.2695 303.858 75.9547 301.892 74.2354C299.926 72.516 298.451 70.6956 297.272 68.5717C296.19 66.4478 295.306 64.3239 294.913 62.0988C294.421 59.8738 294.126 57.6487 294.028 55.5248C293.635 50.1645 293.536 44.9053 293.635 39.7473C293.733 34.5892 293.929 29.8358 294.126 25.2845C294.224 24.88 294.224 24.4754 294.224 23.7675C294.421 21.239 294.618 18.6094 295.011 15.8787C295.404 13.148 296.19 10.5184 297.665 7.98991C299.041 5.46146 301.007 3.53983 303.465 2.1239C305.923 0.707967 308.577 0 311.329 0C315.655 0 319.39 1.51707 322.536 4.55122C323.814 5.86601 324.797 7.18081 325.485 8.69788C326.173 10.215 326.763 11.6309 327.058 13.148C327.353 14.665 327.55 16.081 327.648 17.598C327.746 19.014 327.746 20.3288 327.746 21.4413V28.1164C327.845 30.8471 327.845 33.5779 327.845 36.4097C327.845 39.2416 327.943 42.0735 328.041 44.8042V47.1304C328.533 47.1304 328.926 47.1304 329.417 47.0292C329.909 47.0292 330.302 46.9281 330.695 46.9281C330.99 46.9281 331.285 46.9281 331.482 47.0292C331.678 47.0292 331.973 47.1304 332.17 47.1304C333.448 47.2315 335.021 47.4338 336.79 47.7372C338.56 48.0406 340.329 48.8497 342.197 50.0634C344.458 51.5805 346.228 53.5021 347.407 55.8283C348.685 58.1544 349.275 60.5817 349.275 63.1102C349.275 65.5375 348.783 67.7626 347.702 69.583C346.621 71.5047 345.244 73.1229 343.475 74.4377C341.706 75.7525 339.739 76.865 337.577 77.6741C335.512 78.5843 333.251 79.1912 330.892 79.4946Z" fill="#FFC709"/>
<path d="M399.903 31.3532C399.313 31.3532 399.018 31.5555 399.018 31.7578C398.92 31.8589 398.92 32.0612 398.92 32.2635C398.92 32.4658 399.117 32.7692 399.412 32.9714C399.805 33.2749 400.296 33.5783 401.083 33.9828C401.869 34.3874 403.049 34.7919 404.622 35.2976C405.113 35.3988 405.408 35.4999 405.703 35.601C409.439 36.8147 412.781 38.9386 415.632 41.8716C417.991 44.4 419.662 47.2319 420.547 50.3672C421.432 53.5025 421.53 56.5366 420.744 59.5708C419.957 62.8072 418.286 65.8413 415.828 68.572C413.371 71.3028 410.422 73.5278 406.883 75.2472C403.934 76.7642 400.788 77.8768 397.445 78.5847C394.103 79.2927 390.662 79.6972 387.124 79.7984C385.354 79.7984 383.585 79.7984 381.913 79.5961C377.195 79.1916 372.869 78.079 369.134 76.3597C365.3 74.6403 362.252 72.3142 359.893 69.4823C358.124 67.3584 356.944 65.0322 356.158 62.5038C355.371 59.9753 355.273 57.4469 355.666 55.0195C355.863 53.907 356.256 52.6934 356.747 51.4797C357.239 50.2661 357.927 49.2547 358.812 48.2433C359.697 47.333 360.68 46.5239 361.859 45.9171C363.039 45.3103 364.317 45.0069 365.693 45.0069C366.971 45.0069 368.249 45.2092 369.527 45.6137C370.707 46.0183 371.886 46.5239 372.968 47.1308C373.361 47.333 373.754 47.5353 374.049 47.7376C374.442 47.9399 374.737 48.041 375.13 48.2433C375.425 48.3444 375.819 48.5467 376.212 48.6478C376.605 48.749 377.096 48.749 377.391 48.749C377.883 48.749 378.08 48.749 378.178 48.6478C378.276 48.5467 378.374 48.4456 378.374 48.3444C378.374 48.2433 378.374 48.041 378.374 47.7376C378.374 47.5353 378.178 47.2319 377.883 46.9285C377.588 46.6251 376.998 46.3217 376.212 45.9171C375.425 45.5126 374.246 45.108 372.673 44.6023L371.591 44.2989C369.822 43.7932 368.052 42.9841 366.381 41.8716C364.71 40.7591 363.137 39.5454 361.761 38.1295C359.402 35.601 357.73 32.7692 356.944 29.6339C356.059 26.4986 356.059 23.4645 356.846 20.4303C357.632 17.1939 359.303 14.1598 361.761 11.3279C364.219 8.49602 367.168 6.27099 370.707 4.65278C371.002 4.4505 371.591 4.14709 372.28 3.84367C377.883 1.41636 383.978 0.202701 390.662 0.101562H391.94C393.218 0.101562 394.595 0.202701 396.069 0.303839C397.347 0.404977 398.723 0.607253 400.001 0.910667C401.279 1.21408 402.656 1.5175 403.835 1.82091C409.734 3.54026 414.354 6.47326 417.696 10.5188C419.466 12.6427 420.645 14.9689 421.334 17.4973C422.022 20.0258 422.218 22.5542 421.727 25.0827C421.53 26.2963 421.137 27.51 420.645 28.6225C420.154 29.735 419.466 30.8475 418.581 31.7578C417.696 32.668 416.713 33.4771 415.632 34.084C414.452 34.6908 413.174 34.9942 411.798 34.9942H411.7C410.422 34.9942 409.144 34.7919 407.866 34.3874C406.686 33.9828 405.506 33.4771 404.425 32.8703C404.032 32.668 403.639 32.4658 403.344 32.2635C403.049 32.0612 402.656 31.9601 402.262 31.7578C401.771 31.4544 400.886 31.3532 399.903 31.3532Z" fill="#F15F6B"/>
<path d="M286.166 26.1946C285.281 21.34 283.119 16.8899 279.776 12.7433C276.532 8.79888 272.502 5.76474 267.685 3.5397C262.868 1.31467 257.756 0.202148 252.349 0.202148C251.464 0.202148 250.481 0.202148 249.498 0.303287C248.515 0.404425 247.532 0.505563 246.647 0.606701C245.468 0.808977 244.19 1.11239 242.617 1.41581C241.142 1.82036 239.471 2.32605 237.8 2.93288C236.129 3.5397 234.458 4.34881 232.885 5.36019C231.214 6.37157 229.739 7.48409 228.461 8.90002C227.281 10.1137 226.397 11.3273 225.807 12.6421C225.217 13.8558 224.824 15.1706 224.627 16.3842C224.431 17.5979 224.332 18.8116 224.431 20.0252C224.431 21.2389 224.529 22.4525 224.627 23.565V23.9696C225.02 29.1276 225.315 34.1845 225.61 39.1403C225.905 44.0961 226.102 48.9507 226.102 53.7042V61.593V61.6941C226.102 62.9078 226.102 64.2225 226.2 65.5373C226.2 66.8521 226.495 68.2681 226.888 69.684C227.478 71.3022 228.265 72.8193 229.346 74.1341C230.427 75.4489 231.803 76.5614 233.376 77.4716C236.129 79.0898 239.275 79.7978 242.617 79.7978C246.156 79.7978 249.302 78.9887 251.956 77.2694C254.61 75.55 256.478 73.2238 257.461 70.392C257.854 69.5829 258.149 68.6726 258.247 67.6612C258.346 66.751 258.444 65.7396 258.542 64.526C258.542 63.818 258.542 63.11 258.444 62.4021C258.444 61.6941 258.346 60.9861 258.346 60.2782C258.247 59.8736 258.247 59.5702 258.247 59.2668C258.247 58.9634 258.247 58.5588 258.247 58.2554V58.0531C260.312 57.952 262.376 57.5474 264.441 56.9406C266.505 56.3338 268.471 55.6258 270.339 54.7156C273.485 53.1985 276.139 51.378 278.596 49.0518C280.956 46.8268 282.824 44.3995 284.102 41.7699C286.559 37.1175 287.247 31.8584 286.166 26.1946ZM263.458 34.8925C261.688 34.9936 260.115 33.6788 260.115 32.0606V31.9595C260.115 31.9595 259.919 31.7572 259.427 31.5549C258.837 31.6561 258.247 31.6561 257.658 31.4538C257.461 31.3527 257.363 31.3527 257.166 31.2515C256.773 31.2515 256.281 31.2515 255.79 31.2515C252.447 31.4538 251.268 31.6561 251.268 31.6561C251.366 31.8584 251.268 31.8584 251.268 32.0606C251.366 33.6788 249.99 34.9936 248.122 35.0948C246.353 35.1959 244.78 33.8811 244.78 32.2629C244.681 30.6447 246.058 29.3299 247.925 29.2288C246.156 29.3299 244.583 28.0151 244.583 26.3969C244.485 24.7787 245.861 23.4639 247.729 23.3628C249.498 23.2616 251.071 24.5764 251.071 26.1946V26.2958C251.071 26.2958 252.349 26.8015 256.871 26.9026C259.82 26.9026 259.919 26.5992 259.919 26.5992C259.82 26.3969 259.919 26.3969 259.919 26.1946C259.82 24.5764 261.197 23.2616 263.064 23.1605C264.834 23.0594 266.407 24.3741 266.407 25.9924C266.505 27.6106 265.129 28.9254 263.261 29.0265C265.03 28.9254 266.603 30.2402 266.603 31.8584C266.603 33.4766 265.227 34.8925 263.458 34.8925Z" fill="#41C0C9"/>
<path d="M61.8336 26.1946C60.9489 21.34 58.7862 16.8899 55.4438 12.7433C52.1015 8.79888 48.071 5.76474 43.2541 3.53971C38.4371 1.31467 33.3253 0.202148 27.9185 0.202148C27.0338 0.202148 26.0507 0.202148 25.0677 0.303287C24.0846 0.404425 23.1016 0.505563 22.2169 0.606701C21.0372 0.808977 19.6609 1.11239 18.1864 1.41581C16.7118 1.82036 15.0406 2.32605 13.3694 2.93288C11.6983 3.53971 10.0271 4.34881 8.4542 5.36019C6.78302 6.37157 5.30845 7.48409 4.03049 8.90002C2.85084 10.1137 1.96609 11.3273 1.37627 12.541C0.786437 13.7547 0.393219 15.0694 0.196609 16.2831C0 17.4968 0 18.7104 0 19.9241C0 21.1377 0.0983047 22.3514 0.196609 23.4639V23.8685C0.589828 29.0265 0.884742 34.0834 1.17966 39.0392C1.47457 43.9949 1.67118 48.8496 1.67118 53.6031V61.4918V61.593C1.67118 62.8066 1.67118 64.1214 1.76948 65.4362C1.76948 66.751 2.0644 68.1669 2.45762 69.5829C3.04744 71.2011 3.83388 72.7182 4.91523 74.0329C5.99658 75.3477 7.37285 76.4603 8.94572 77.3705C11.6983 78.9887 14.844 79.6967 18.1864 79.6967C21.7253 79.6967 24.8711 78.8876 27.5253 77.1682C30.1795 75.4489 32.0473 73.1227 33.0304 70.2908C33.4236 69.4817 33.7185 68.5715 33.8168 67.5601C33.9151 66.6499 34.0134 65.6385 34.1117 64.4248C34.1117 63.7169 34.1117 63.0089 34.0134 62.3009C34.0134 61.593 33.9151 60.885 33.9151 60.177C33.8168 59.7725 33.8168 59.4691 33.8168 59.1657C33.8168 58.8622 33.8168 58.4577 33.8168 58.1543V57.952C35.8812 57.8509 37.9456 57.4463 40.01 56.8395C42.0744 56.2326 44.0405 55.5247 45.9083 54.6144C49.054 53.0974 51.7082 51.2769 54.1659 48.9507C56.5252 46.7257 58.393 44.2984 59.6709 41.6688C62.2268 37.1175 62.915 31.8584 61.8336 26.1946ZM31.5558 22.7559C32.0473 21.4411 33.4236 20.632 34.7015 20.9355C35.9795 21.34 36.6676 22.6548 36.2744 24.0707C35.7829 25.3855 34.4066 26.1946 33.1287 25.8912C31.8507 25.4867 31.0643 24.1719 31.5558 22.7559ZM23.6914 21.4411C24.1829 20.0252 25.6575 19.2161 27.0338 19.6207C28.41 20.0252 29.0982 21.4411 28.6067 22.8571C28.1151 24.273 26.6406 25.0821 25.2643 24.6776C23.888 24.273 23.1999 22.8571 23.6914 21.4411ZM18.0881 24.7787C18.4813 23.6662 19.6609 22.9582 20.8406 23.2616C22.0202 23.565 22.5118 24.7787 22.2169 25.8912C21.8236 27.0037 20.644 27.7117 19.4643 27.4083C18.2847 27.1049 17.6948 25.9924 18.0881 24.7787ZM38.6337 37.5221C37.4541 40.9608 32.1456 42.579 26.7389 41.0619C21.3321 39.5449 17.8914 35.4993 19.0711 31.9595C20.2508 28.4197 25.5592 26.9026 30.966 28.4197C36.3727 30.0379 39.8134 34.0834 38.6337 37.5221ZM42.271 29.5322C41.7795 30.9481 40.3049 31.7572 38.9286 31.3527C37.5524 30.9481 36.8643 29.5322 37.2575 28.1163C37.749 26.7003 39.2236 25.8912 40.5998 26.2958C41.9761 26.5992 42.6642 28.1163 42.271 29.5322Z" fill="#B62979"/>
</svg>
