<svg width="212" height="40" viewBox="0 0 212 40" fill="none" xmlns="http://www.w3.org/2000/svg">
<path d="M70.9168 6.16948C71.9496 8.14167 72.6872 10.215 73.2282 12.3389C73.7692 14.4628 74.0151 16.6372 74.0151 18.8117C74.0151 20.9861 73.7692 23.0595 73.2282 25.0822C72.6872 27.0544 71.9496 28.9254 70.9168 30.6448C69.7857 32.5664 68.3595 34.2352 66.6874 35.6511C65.0153 37.067 63.1464 38.129 61.1301 38.8875C59.0646 39.646 56.8515 40 54.54 40H54.3433C51.9827 40 49.7696 39.646 47.7533 38.8875C45.7369 38.129 43.8681 37.067 42.196 35.6511C40.5239 34.2352 39.0977 32.5664 37.9666 30.6448C36.9338 28.9254 36.1961 27.0544 35.6552 25.0822C35.1142 23.11 34.8683 20.9861 34.8683 18.8117C34.8683 16.6372 35.1142 14.4628 35.6552 12.3389C36.1961 10.215 36.9338 8.14167 37.9666 6.16948C39.442 3.33763 41.2124 1.51715 43.3271 0.657485C44.1632 0.303504 45.0484 0.101229 46.0812 0.101229C47.6057 0.101229 48.9828 0.505779 50.3106 1.26431C51.5893 2.02284 52.5237 3.03422 53.0647 4.24787C53.9007 6.11891 53.8024 8.39451 52.8679 11.0747L52.327 12.5411C51.8844 13.7042 51.4909 14.9179 51.1467 16.1821C50.7532 17.4463 50.7532 18.5588 51.0483 19.6208C51.2942 20.531 51.7368 21.1884 52.3762 21.593C53.0155 21.9469 53.704 22.1492 54.3433 22.1492C54.9827 22.1492 55.6712 21.9469 56.3597 21.593C57.0482 21.239 57.4908 20.5816 57.7367 19.6208C58.0318 18.5588 58.0318 17.4463 57.6383 16.1821C57.2449 14.9179 56.8515 13.7042 56.458 12.5411L55.9171 11.0747C54.9827 8.39451 54.9335 6.11891 55.7204 4.24787C56.2613 3.03422 57.1957 2.02284 58.4744 1.26431C59.7531 0.505779 61.1793 0.101229 62.7038 0.101229C63.7366 0.101229 64.6218 0.303504 65.4579 0.657485C67.6218 1.46659 69.4414 3.33763 70.9168 6.16948Z" fill="#E14B32"/>
<path d="M106.965 20.8344C106.424 21.9469 105.687 22.9583 104.752 23.9696C103.818 24.9304 102.736 25.7901 101.506 26.4981C103.572 27.914 104.85 29.0771 105.293 29.9368C105.637 30.493 105.883 31.0493 106.031 31.7067C106.178 32.3641 106.178 33.0215 106.129 33.6789C106.031 34.5385 105.736 35.3476 105.342 36.1062C104.949 36.8647 104.408 37.5221 103.719 38.0783C103.031 38.6346 102.293 39.0391 101.408 39.3426C100.572 39.646 99.6375 39.7977 98.6539 39.7977C97.5228 39.7977 96.5392 39.5954 95.6048 39.1908C94.9654 38.938 94.4245 38.6346 93.8343 38.2806C93.2933 37.9266 92.7524 37.5221 92.2606 37.1681C90.6868 39.0391 88.6213 39.9494 86.0639 39.9494C85.2771 39.9494 84.4902 39.8482 83.7525 39.646C82.9656 39.4437 82.2279 39.1403 81.5886 38.7357C80.9001 38.3312 80.3099 37.8255 79.769 37.2187C79.228 36.6118 78.8346 35.8533 78.5887 34.9936C78.3919 34.3362 78.2936 33.6283 78.2444 32.9709C78.1952 32.3135 78.1952 31.6561 78.1952 31.0493V30.9987V26.9532C78.146 24.5259 78.0969 22.048 77.9493 19.469C77.851 16.9406 77.6543 14.3616 77.4084 11.732V11.5297C77.3592 10.9735 77.3592 10.3666 77.31 9.75981C77.31 9.15299 77.31 8.54616 77.4084 7.93934C77.5067 7.33251 77.7034 6.72569 77.9493 6.11886C78.2444 5.51204 78.6378 4.90521 79.228 4.29839C79.8673 3.64099 80.605 3.03417 81.4411 2.52848C82.2771 2.02279 83.064 1.66881 83.9 1.3654C84.7361 1.06198 85.523 0.809139 86.2607 0.657433C86.9983 0.455158 87.6869 0.35402 88.277 0.252883C88.7196 0.202314 89.2114 0.151745 89.654 0.101176C90.0967 0.0506077 90.5885 0.0506077 91.0311 0.0506077C93.7359 0.0506077 96.2441 0.606864 98.6539 1.66881C101.064 2.78132 103.08 4.29839 104.703 6.27057C106.375 8.29332 107.457 10.5183 107.9 12.9456C108.539 15.8281 108.195 18.4071 106.965 20.8344ZM95.8507 14.7661C95.8998 14.665 95.8998 14.5133 95.8998 14.2604C95.8015 13.8053 95.5064 13.5019 95.0146 13.4513C94.5228 13.3502 94.0802 13.4008 93.6868 13.603C93.3917 13.7547 93.2441 13.957 93.1458 14.2604C93.0474 14.5638 93.0966 14.8673 93.2441 15.0695C93.3425 15.3729 93.5884 15.5752 93.8835 15.6764C94.1786 15.7775 94.5228 15.8281 94.8179 15.7775C95.0638 15.7269 95.2605 15.5752 95.4572 15.4235C95.6048 15.2212 95.7523 15.019 95.8507 14.7661Z" fill="#F8971D"/>
<path d="M165.537 39.7471C164.898 39.7976 164.308 39.8482 163.668 39.8988C163.029 39.9494 162.39 39.9494 161.75 39.9494C160.865 39.9494 159.783 39.8988 158.554 39.7976C157.324 39.6965 156.095 39.4437 154.865 39.0897C153.292 38.6346 152.013 37.9772 151.029 37.1175C150.046 36.2578 149.308 35.3476 148.718 34.2856C148.177 33.2237 147.734 32.1618 147.538 31.0492C147.292 29.9367 147.144 28.8242 147.095 27.7623C146.898 25.0821 146.849 22.4525 146.898 19.8735C146.947 17.2945 147.046 14.9178 147.144 12.6422C147.193 12.4399 147.193 12.2377 147.193 11.8837C147.292 10.6194 147.39 9.30466 147.587 7.9393C147.784 6.57395 148.177 5.25916 148.915 3.99494C149.603 2.73072 150.587 1.76991 151.816 1.06194C153.046 0.353982 154.374 0 155.751 0C157.914 0 159.783 0.758532 161.357 2.2756C161.996 2.93299 162.488 3.59039 162.832 4.34892C163.177 5.10745 163.472 5.81541 163.619 6.57395C163.767 7.33248 163.865 8.04044 163.914 8.79897C163.964 9.50694 163.964 10.1643 163.964 10.7206V14.0581C164.013 15.4235 164.013 16.7888 164.013 18.2048C164.013 19.6207 164.062 21.0366 164.111 22.402V23.5651C164.357 23.5651 164.554 23.5651 164.8 23.5145C165.045 23.5145 165.242 23.4639 165.439 23.4639C165.586 23.4639 165.734 23.4639 165.832 23.5145C165.931 23.5145 166.078 23.5651 166.177 23.5651C166.816 23.6156 167.603 23.7168 168.488 23.8685C169.373 24.0202 170.259 24.4247 171.193 25.0316C172.324 25.7901 173.209 26.7509 173.799 27.914C174.439 29.0771 174.734 30.2907 174.734 31.5549C174.734 32.7686 174.488 33.8811 173.947 34.7913C173.406 35.7521 172.717 36.5612 171.832 37.2186C170.947 37.876 169.963 38.4323 168.881 38.8368C167.849 39.292 166.718 39.5954 165.537 39.7471Z" fill="#FFC709"/>
<path d="M200.062 15.6764C199.767 15.6764 199.619 15.7775 199.619 15.8786C199.57 15.9292 199.57 16.0303 199.57 16.1315C199.57 16.2326 199.668 16.3843 199.816 16.4855C200.013 16.6372 200.259 16.7889 200.652 16.9911C201.045 17.1934 201.636 17.3957 202.423 17.6485C202.668 17.6991 202.816 17.7497 202.963 17.8002C204.832 18.4071 206.504 19.469 207.931 20.9355C209.111 22.1997 209.947 23.6157 210.39 25.1833C210.832 26.7509 210.881 28.268 210.488 29.7851C210.094 31.4033 209.258 32.9203 208.029 34.2857C206.799 35.651 205.324 36.7635 203.554 37.6232C202.078 38.3817 200.505 38.938 198.832 39.292C197.16 39.646 195.439 39.8482 193.669 39.8988C192.783 39.8988 191.898 39.8988 191.062 39.7977C188.701 39.5954 186.538 39.0391 184.669 38.1795C182.751 37.3198 181.226 36.1567 180.046 34.7408C179.161 33.6788 178.571 32.5158 178.177 31.2515C177.784 29.9873 177.734 28.7231 177.931 27.5095C178.03 26.9532 178.226 26.3464 178.472 25.7395C178.718 25.1327 179.062 24.627 179.505 24.1213C179.948 23.6662 180.439 23.2617 181.029 22.9583C181.62 22.6549 182.259 22.5031 182.947 22.5031C183.587 22.5031 184.226 22.6043 184.865 22.8066C185.456 23.0088 186.046 23.2617 186.587 23.5651C186.783 23.6662 186.98 23.7674 187.128 23.8685C187.324 23.9696 187.472 24.0202 187.669 24.1213C187.816 24.1719 188.013 24.2731 188.21 24.3236C188.406 24.3742 188.652 24.3742 188.8 24.3742C189.046 24.3742 189.144 24.3742 189.193 24.3236C189.242 24.2731 189.292 24.2225 189.292 24.1719C189.292 24.1213 189.292 24.0202 189.292 23.8685C189.292 23.7674 189.193 23.6157 189.046 23.464C188.898 23.3122 188.603 23.1605 188.21 22.9583C187.816 22.756 187.226 22.5537 186.439 22.3009L185.898 22.1492C185.013 21.8963 184.128 21.4918 183.292 20.9355C182.456 20.3793 181.669 19.7724 180.98 19.0645C179.8 17.8002 178.964 16.3843 178.571 14.8167C178.128 13.2491 178.128 11.732 178.521 10.2149C178.915 8.59673 179.751 7.07967 180.98 5.66374C182.21 4.24782 183.685 3.1353 185.456 2.3262C185.603 2.22507 185.898 2.07336 186.243 1.92165C189.046 0.708002 192.095 0.101176 195.439 0.0506077H196.078C196.718 0.0506077 197.406 0.101176 198.144 0.151745C198.783 0.202314 199.472 0.303452 200.111 0.455158C200.75 0.606864 201.439 0.758571 202.029 0.910277C204.98 1.76995 207.291 3.23644 208.963 5.25919C209.849 6.32114 210.439 7.48422 210.783 8.74844C211.127 10.0127 211.226 11.2769 210.98 12.5411C210.881 13.1479 210.685 13.7547 210.439 14.311C210.193 14.8673 209.849 15.4235 209.406 15.8786C208.963 16.3338 208.472 16.7383 207.931 17.0417C207.34 17.3451 206.701 17.4968 206.013 17.4968H205.963C205.324 17.4968 204.685 17.3957 204.045 17.1934C203.455 16.9911 202.865 16.7383 202.324 16.4349C202.127 16.3338 201.931 16.2326 201.783 16.1315C201.636 16.0303 201.439 15.9798 201.242 15.8786C200.996 15.7269 200.554 15.6764 200.062 15.6764Z" fill="#F15F6B"/>
<path d="M143.162 13.0974C142.719 10.6701 141.637 8.44508 139.965 6.37176C138.342 4.39957 136.326 2.88251 133.916 1.77C131.506 0.657485 128.949 0.101229 126.244 0.101229C125.802 0.101229 125.31 0.101229 124.818 0.151797C124.326 0.202366 123.834 0.252935 123.392 0.303504C122.802 0.404641 122.162 0.556348 121.375 0.708054C120.638 0.910329 119.802 1.16317 118.966 1.46659C118.13 1.77 117.293 2.17455 116.507 2.68024C115.671 3.18592 114.933 3.74218 114.294 4.45014C113.703 5.05697 113.261 5.66379 112.966 6.32119C112.671 6.92801 112.474 7.58541 112.376 8.19223C112.277 8.79906 112.228 9.40588 112.277 10.0127C112.277 10.6195 112.326 11.2264 112.376 11.7826V11.9849C112.572 14.5639 112.72 17.0923 112.867 19.5702C113.015 22.0481 113.113 24.4754 113.113 26.8521V30.7965V30.847C113.113 31.4539 113.113 32.1113 113.162 32.7687C113.162 33.426 113.31 34.134 113.507 34.842C113.802 35.6511 114.195 36.4096 114.736 37.067C115.277 37.7244 115.966 38.2807 116.752 38.7358C118.13 39.5449 119.703 39.8989 121.375 39.8989C123.146 39.8989 124.72 39.4943 126.047 38.6346C127.375 37.775 128.31 36.6119 128.801 35.196C128.998 34.7914 129.146 34.3363 129.195 33.8306C129.244 33.3755 129.293 32.8698 129.342 32.263C129.342 31.909 129.342 31.555 129.293 31.201C129.293 30.847 129.244 30.4931 129.244 30.1391C129.195 29.9368 129.195 29.7851 129.195 29.6334C129.195 29.4817 129.195 29.2794 129.195 29.1277V29.0266C130.228 28.976 131.26 28.7737 132.293 28.4703C133.326 28.1669 134.31 27.8129 135.244 27.3578C136.818 26.5993 138.146 25.689 139.375 24.5259C140.555 23.4134 141.49 22.1998 142.129 20.885C143.359 18.5588 143.703 15.9293 143.162 13.0974ZM131.801 17.4463C130.916 17.4969 130.129 16.8395 130.129 16.0304V15.9798C130.129 15.9798 130.031 15.8787 129.785 15.7775C129.49 15.8281 129.195 15.8281 128.9 15.727C128.801 15.6764 128.752 15.6764 128.654 15.6258C128.457 15.6258 128.211 15.6258 127.965 15.6258C126.293 15.727 125.703 15.8281 125.703 15.8281C125.752 15.9293 125.703 15.9293 125.703 16.0304C125.752 16.8395 125.064 17.4969 124.129 17.5475C123.244 17.598 122.457 16.9406 122.457 16.1315C122.408 15.3224 123.097 14.665 124.031 14.6145C123.146 14.665 122.359 14.0076 122.359 13.1985C122.31 12.3894 122.998 11.732 123.933 11.6815C124.818 11.6309 125.605 12.2883 125.605 13.0974V13.148C125.605 13.148 126.244 13.4008 128.506 13.4514C129.982 13.4514 130.031 13.2997 130.031 13.2997C129.982 13.1985 130.031 13.1985 130.031 13.0974C129.982 12.2883 130.67 11.6309 131.605 11.5803C132.49 11.5298 133.277 12.1872 133.277 12.9963C133.326 13.8054 132.637 14.4628 131.703 14.5133C132.588 14.4628 133.375 15.1202 133.375 15.9293C133.375 16.7384 132.687 17.4463 131.801 17.4463Z" fill="#41C0C9"/>
<path d="M30.9339 13.0974C30.4912 10.6701 29.4093 8.44508 27.7372 6.37176C26.0651 4.39957 24.0487 2.88251 21.6389 1.77C19.2292 0.657485 16.6718 0.101229 13.967 0.101229C13.5243 0.101229 13.0325 0.101229 12.5408 0.151797C12.049 0.202366 11.5572 0.252935 11.1146 0.303504C10.5244 0.404641 9.83589 0.556348 9.09819 0.708054C8.3605 0.910329 7.52445 1.16317 6.6884 1.46659C5.85235 1.77 5.0163 2.17455 4.22943 2.68024C3.39338 3.18592 2.65569 3.74218 2.01636 4.45014C1.4262 5.05697 0.983589 5.66379 0.688512 6.27062C0.393435 6.87744 0.196718 7.53484 0.0983589 8.14166C0 8.74849 0 9.35532 0 9.96214C0 10.569 0.0491794 11.1758 0.0983589 11.732V11.9343C0.295077 14.5133 0.442615 17.0418 0.590153 19.5196C0.737691 21.9975 0.83605 24.4248 0.83605 26.8015V30.7459V30.7965C0.83605 31.4033 0.83605 32.0607 0.88523 32.7181C0.88523 33.3755 1.03277 34.0834 1.22949 34.7914C1.52456 35.6005 1.918 36.359 2.45897 37.0164C2.99994 37.6738 3.68846 38.2301 4.47533 38.6852C5.85235 39.4943 7.42609 39.8483 9.09819 39.8483C10.8687 39.8483 12.4424 39.4437 13.7702 38.5841C15.0981 37.7244 16.0325 36.5613 16.5243 35.1454C16.721 34.7408 16.8685 34.2857 16.9177 33.78C16.9669 33.3249 17.0161 32.8192 17.0653 32.2124C17.0653 31.8584 17.0653 31.5044 17.0161 31.1505C17.0161 30.7965 16.9669 30.4425 16.9669 30.0885C16.9177 29.8862 16.9177 29.7345 16.9177 29.5828C16.9177 29.4311 16.9177 29.2288 16.9177 29.0771V28.976C17.9505 28.9254 18.9833 28.7232 20.016 28.4197C21.0488 28.1163 22.0324 27.7624 22.9668 27.3072C24.5405 26.5487 25.8684 25.6385 27.0979 24.4754C28.2782 23.3629 29.2126 22.1492 29.8519 20.8344C31.1306 18.5588 31.4748 15.9293 30.9339 13.0974ZM15.7866 11.3781C16.0325 10.7207 16.721 10.3161 17.3603 10.4678C17.9997 10.6701 18.3439 11.3275 18.1472 12.0355C17.9013 12.6929 17.2128 13.0974 16.5735 12.9457C15.9341 12.7434 15.5407 12.086 15.7866 11.3781ZM11.8522 10.7207C12.0981 10.0127 12.8358 9.60816 13.5243 9.81043C14.2129 10.0127 14.5571 10.7207 14.3112 11.4286C14.0653 12.1366 13.3276 12.5411 12.6391 12.3389C11.9506 12.1366 11.6063 11.4286 11.8522 10.7207ZM9.04901 12.3894C9.24573 11.8332 9.83589 11.4792 10.426 11.6309C11.0162 11.7826 11.2621 12.3894 11.1146 12.9457C10.9178 13.502 10.3277 13.8559 9.73753 13.7042C9.14737 13.5525 8.8523 12.9963 9.04901 12.3894ZM19.3275 18.7611C18.7374 20.4804 16.0817 21.2895 13.3768 20.531C10.6719 19.7725 8.95065 17.7497 9.54081 15.9798C10.131 14.2099 12.7867 13.4514 15.4915 14.2099C18.1964 15.019 19.9177 17.0418 19.3275 18.7611ZM21.1472 14.7662C20.9013 15.4741 20.1636 15.8787 19.4751 15.6764C18.7865 15.4741 18.4423 14.7662 18.639 14.0582C18.8849 13.3502 19.6226 12.9457 20.3111 13.148C20.9996 13.2997 21.3439 14.0582 21.1472 14.7662Z" fill="#B62979"/>
</svg>
