<svg width="64" height="64" fill="none" xmlns="http://www.w3.org/2000/svg"><path d="M30.94.662a2 2 0 012.12 0l30 18.75A2 2 0 0164 21.11v5.339c0 1.587-1.76 2.542-3.09 1.677L33.069 10.028a2 2 0 00-2.15-.019L3.06 27.421C1.728 28.253 0 27.296 0 25.725v-4.617a2 2 0 01.94-1.695l30-18.75zm-.027 10.96a2 2 0 012.164.015l24.95 16.304a2 2 0 01.906 1.674V62a2 2 0 01-2 2H43.867a2 2 0 01-2-2V51.2c0-2.667-.8-5.333-2.4-7.2-1.6-1.867-4.267-2.933-7.467-2.933-3.2 0-5.6 1.066-7.467 2.933-1.6 1.867-2.4 4.267-2.4 7.2V62a2 2 0 01-2 2H7.067a2 2 0 01-2-2V29.1a2 2 0 01.93-1.689l24.916-15.789zm-.78 5.978c-1.066 0-1.866 1.6-1.866 3.467 0 1.866.8 3.466 1.866 3.466 1.013 0 1.785-1.441 2.089-3.184a1.643 1.643 0 000-.565c-.304-1.743-1.076-3.184-2.089-3.184zm4.616 3.809a3.853 3.853 0 01-.194.367c-.935 1.54-.659 3.044.112 3.557 1.066.534 2.4-.266 3.466-1.866.97-1.454.838-2.909.205-3.562a.928.928 0 00-.463-.245c-1.408-.326-2.579.578-3.126 1.749zM24 22.133c-1.032.258-1.315 1.765-1.09 3.312.014.103.04.205.075.303.548 1.517 1.582 2.51 2.615 2.252.983-.246 1.287-1.624 1.12-3.09a1.74 1.74 0 00-.25-.702c-.736-1.215-1.49-2.32-2.47-2.075zm13.067 6.134c-1.067 1.6-1.067 3.2 0 3.733 1.066.533 2.4-.267 3.466-1.867 1.067-1.6 1.067-3.2 0-3.733-1.333-.533-2.933.8-3.466 1.867zm-12.8 3.466c-.267 1.067.266 2.134 1.866 2.667.677.226 2.499.26 3.528.266.31.001.618.073.873.25.506.35 1.173.877 2 1.084.8.267 2.133-.533 2.4-1.6.501-1.756-1.594-6.346-3.176-7.326a1.014 1.014 0 00-.615-.129c-2.399.177-5.857 2.239-6.876 4.788z" fill="#333"/></svg>